<svg id="visual" viewBox="0 0 960 540" width="960" height="540" xmlns="http://www.w3.org/2000/svg" xmlns:xlink="http://www.w3.org/1999/xlink" version="1.1"><rect x="0" y="0" width="960" height="540" fill="#f8ede2"></rect><defs><linearGradient id="grad1_0" x1="43.8%" y1="100%" x2="100%" y2="0%"><stop offset="14.444444444444446%" stop-color="#f9ad06" stop-opacity="1"></stop><stop offset="85.55555555555554%" stop-color="#f9ad06" stop-opacity="1"></stop></linearGradient></defs><defs><linearGradient id="grad1_1" x1="43.8%" y1="100%" x2="100%" y2="0%"><stop offset="14.444444444444446%" stop-color="#f9ad06" stop-opacity="1"></stop><stop offset="85.55555555555554%" stop-color="#f8ede2" stop-opacity="1"></stop></linearGradient></defs><defs><linearGradient id="grad2_0" x1="0%" y1="100%" x2="56.3%" y2="0%"><stop offset="14.444444444444446%" stop-color="#f9ad06" stop-opacity="1"></stop><stop offset="85.55555555555554%" stop-color="#f9ad06" stop-opacity="1"></stop></linearGradient></defs><defs><linearGradient id="grad2_1" x1="0%" y1="100%" x2="56.3%" y2="0%"><stop offset="14.444444444444446%" stop-color="#f8ede2" stop-opacity="1"></stop><stop offset="85.55555555555554%" stop-color="#f9ad06" stop-opacity="1"></stop></linearGradient></defs><g transform="translate(960, 540)"><path d="M-324 0C-286.3 -29.3 -248.6 -58.6 -236.5 -98C-224.5 -137.3 -238.1 -186.6 -223.4 -223.4C-208.8 -260.3 -165.9 -284.7 -124 -299.3C-82 -314 -41 -319 0 -324L0 0Z" fill="#ffcc85"></path><path d="M-162 0C-143.1 -14.7 -124.3 -29.3 -118.3 -49C-112.2 -68.6 -119 -93.3 -111.7 -111.7C-104.4 -130.1 -83 -142.3 -62 -149.7C-41 -157 -20.5 -159.5 0 -162L0 0Z" fill="#f9ad06"></path></g><g transform="translate(0, 0)"><path d="M324 0C320.7 43.6 317.4 87.1 299.3 124C281.3 160.9 248.4 191.1 215.7 215.7C182.9 240.2 150.3 259.1 114.4 276.2C78.5 293.4 39.3 308.7 0 324L0 0Z" fill="#ffcc85"></path><path d="M162 0C160.4 21.8 158.7 43.6 149.7 62C140.6 80.4 124.2 95.6 107.8 107.8C91.5 120.1 75.2 129.6 57.2 138.1C39.3 146.7 19.6 154.3 0 162L0 0Z" fill="#f9ad06"></path></g></svg>