<svg id="visual" viewBox="0 0 960 540" width="960" height="540" xmlns="http://www.w3.org/2000/svg" xmlns:xlink="http://www.w3.org/1999/xlink" version="1.1"><rect x="0" y="0" width="960" height="540" fill="#f8ede2"></rect><defs><linearGradient id="grad1_0" x1="43.8%" y1="100%" x2="100%" y2="0%"><stop offset="14.444444444444446%" stop-color="#f8ede2" stop-opacity="1"></stop><stop offset="85.55555555555554%" stop-color="#f8ede2" stop-opacity="1"></stop></linearGradient></defs><defs><linearGradient id="grad2_0" x1="0%" y1="100%" x2="56.3%" y2="0%"><stop offset="14.444444444444446%" stop-color="#f8ede2" stop-opacity="1"></stop><stop offset="85.55555555555554%" stop-color="#f8ede2" stop-opacity="1"></stop></linearGradient></defs><g transform="translate(960, 540)"><path d="M-324 0C-324.1 -46.7 -324.2 -93.4 -299.3 -124C-274.5 -154.5 -224.7 -168.9 -190.9 -190.9C-157.1 -212.9 -139.4 -242.6 -110.2 -266.1C-81.1 -289.5 -40.5 -306.8 0 -324L0 0Z" fill="#f9ad06"></path></g><g transform="translate(0, 0)"><path d="M324 0C305.5 38.1 287 76.2 269.8 111.7C252.5 147.3 236.5 180.1 213.5 213.5C190.6 246.9 160.7 280.8 124 299.3C87.2 317.8 43.6 320.9 0 324L0 0Z" fill="#f9ad06"></path></g></svg>