<svg id="visual" viewBox="0 0 960 540" width="960" height="540" xmlns="http://www.w3.org/2000/svg" xmlns:xlink="http://www.w3.org/1999/xlink" version="1.1"><rect x="0" y="0" width="960" height="540" fill="#f8ede2"></rect><path d="M0 327L26.7 330.2C53.3 333.3 106.7 339.7 160 341C213.3 342.3 266.7 338.7 320 344.5C373.3 350.3 426.7 365.7 480 370.7C533.3 375.7 586.7 370.3 640 368.5C693.3 366.7 746.7 368.3 800 366.8C853.3 365.3 906.7 360.7 933.3 358.3L960 356L960 541L933.3 541C906.7 541 853.3 541 800 541C746.7 541 693.3 541 640 541C586.7 541 533.3 541 480 541C426.7 541 373.3 541 320 541C266.7 541 213.3 541 160 541C106.7 541 53.3 541 26.7 541L0 541Z" fill="#f9ad06"></path><path d="M0 425L26.7 421.7C53.3 418.3 106.7 411.7 160 409C213.3 406.3 266.7 407.7 320 404.3C373.3 401 426.7 393 480 394.8C533.3 396.7 586.7 408.3 640 412.7C693.3 417 746.7 414 800 409.8C853.3 405.7 906.7 400.3 933.3 397.7L960 395L960 541L933.3 541C906.7 541 853.3 541 800 541C746.7 541 693.3 541 640 541C586.7 541 533.3 541 480 541C426.7 541 373.3 541 320 541C266.7 541 213.3 541 160 541C106.7 541 53.3 541 26.7 541L0 541Z" fill="#f99305"></path><path d="M0 437L26.7 442.2C53.3 447.3 106.7 457.7 160 460.2C213.3 462.7 266.7 457.3 320 448.3C373.3 439.3 426.7 426.7 480 428.5C533.3 430.3 586.7 446.7 640 453.7C693.3 460.7 746.7 458.3 800 450.8C853.3 443.3 906.7 430.7 933.3 424.3L960 418L960 541L933.3 541C906.7 541 853.3 541 800 541C746.7 541 693.3 541 640 541C586.7 541 533.3 541 480 541C426.7 541 373.3 541 320 541C266.7 541 213.3 541 160 541C106.7 541 53.3 541 26.7 541L0 541Z" fill="#f67712"></path><path d="M0 489L26.7 487.2C53.3 485.3 106.7 481.7 160 479.7C213.3 477.7 266.7 477.3 320 482.5C373.3 487.7 426.7 498.3 480 500.8C533.3 503.3 586.7 497.7 640 491.2C693.3 484.7 746.7 477.3 800 476.8C853.3 476.3 906.7 482.7 933.3 485.8L960 489L960 541L933.3 541C906.7 541 853.3 541 800 541C746.7 541 693.3 541 640 541C586.7 541 533.3 541 480 541C426.7 541 373.3 541 320 541C266.7 541 213.3 541 160 541C106.7 541 53.3 541 26.7 541L0 541Z" fill="#f05a1f"></path></svg>